<mxfile host="app.diagrams.net" agent="Mozilla/5.0 (Windows NT 10.0; Win64; x64) AppleWebKit/537.36 (KHTML, like Gecko) Chrome/139.0.0.0 Safari/537.36" version="28.2.1" pages="3">
  <diagram name="第 1 页" id="AMXaZezd7IBLnM22SHgh">
    <mxGraphModel dx="1678" dy="874" grid="0" gridSize="10" guides="1" tooltips="1" connect="1" arrows="1" fold="1" page="1" pageScale="1" pageWidth="827" pageHeight="1169" math="0" shadow="0">
      <root>
        <mxCell id="0" />
        <mxCell id="1" parent="0" />
        <mxCell id="vpCU-5W5B5tJJJ8MTjzh-18" value="" style="whiteSpace=wrap;strokeWidth=2;" vertex="1" parent="1">
          <mxGeometry x="212" y="20" width="407" height="807" as="geometry" />
        </mxCell>
        <mxCell id="vpCU-5W5B5tJJJ8MTjzh-19" value="外部环境" style="whiteSpace=wrap;strokeWidth=2;" vertex="1" parent="1">
          <mxGeometry x="20" y="20" width="172" height="807" as="geometry" />
        </mxCell>
        <mxCell id="vpCU-5W5B5tJJJ8MTjzh-20" value="数据/事件" style="rounded=1;arcSize=20;strokeWidth=2" vertex="1" parent="1">
          <mxGeometry x="55" y="45" width="102" height="54" as="geometry" />
        </mxCell>
        <mxCell id="vpCU-5W5B5tJJJ8MTjzh-21" value="状态改变" style="rounded=1;arcSize=20;strokeWidth=2" vertex="1" parent="1">
          <mxGeometry x="59" y="724" width="94" height="54" as="geometry" />
        </mxCell>
        <mxCell id="vpCU-5W5B5tJJJ8MTjzh-22" value="&#xa;通过传感器/探针收集环境信息" style="whiteSpace=wrap;strokeWidth=2;" vertex="1" parent="1">
          <mxGeometry x="302" y="197" width="260" height="102" as="geometry" />
        </mxCell>
        <mxCell id="vpCU-5W5B5tJJJ8MTjzh-23" value="决策引擎 (Decision-making)&#xa;" style="whiteSpace=wrap;strokeWidth=2;fontStyle=1" vertex="1" parent="1">
          <mxGeometry x="302" y="349" width="260" height="126" as="geometry" />
        </mxCell>
        <mxCell id="vpCU-5W5B5tJJJ8MTjzh-24" value="&#xa;通过执行器执行决策&#xa;对环境产生影响" style="whiteSpace=wrap;strokeWidth=2;" vertex="1" parent="1">
          <mxGeometry x="261" y="525" width="204" height="102" as="geometry" />
        </mxCell>
        <mxCell id="vpCU-5W5B5tJJJ8MTjzh-25" value="&#xa;通过交互结果和反馈&#xa;不断优化决策模型和策略" style="whiteSpace=wrap;strokeWidth=2;" vertex="1" parent="1">
          <mxGeometry x="337" y="700" width="244" height="102" as="geometry" />
        </mxCell>
        <mxCell id="vpCU-5W5B5tJJJ8MTjzh-26" value="" style="curved=1;startArrow=none;endArrow=block;exitX=0.5;exitY=1;entryX=0.5;entryY=0;rounded=0;" edge="1" parent="1" source="vpCU-5W5B5tJJJ8MTjzh-22" target="vpCU-5W5B5tJJJ8MTjzh-23">
          <mxGeometry relative="1" as="geometry">
            <Array as="points" />
          </mxGeometry>
        </mxCell>
        <mxCell id="vpCU-5W5B5tJJJ8MTjzh-27" value="" style="curved=1;startArrow=none;endArrow=block;exitX=0.31;exitY=1;entryX=0.5;entryY=0;rounded=0;" edge="1" parent="1" source="vpCU-5W5B5tJJJ8MTjzh-23" target="vpCU-5W5B5tJJJ8MTjzh-24">
          <mxGeometry relative="1" as="geometry">
            <Array as="points">
              <mxPoint x="363" y="500" />
            </Array>
          </mxGeometry>
        </mxCell>
        <mxCell id="vpCU-5W5B5tJJJ8MTjzh-28" value="" style="curved=1;startArrow=none;endArrow=block;exitX=0.58;exitY=1;entryX=0.34;entryY=0;rounded=0;" edge="1" parent="1" source="vpCU-5W5B5tJJJ8MTjzh-24" target="vpCU-5W5B5tJJJ8MTjzh-25">
          <mxGeometry relative="1" as="geometry">
            <Array as="points">
              <mxPoint x="390" y="664" />
            </Array>
          </mxGeometry>
        </mxCell>
        <mxCell id="vpCU-5W5B5tJJJ8MTjzh-29" value="" style="curved=1;dashed=1;dashPattern=2 3;startArrow=none;endArrow=block;exitX=0.66;exitY=0;entryX=0.76;entryY=1;rounded=0;" edge="1" parent="1" source="vpCU-5W5B5tJJJ8MTjzh-25" target="vpCU-5W5B5tJJJ8MTjzh-23">
          <mxGeometry relative="1" as="geometry">
            <Array as="points">
              <mxPoint x="527" y="664" />
              <mxPoint x="527" y="500" />
            </Array>
          </mxGeometry>
        </mxCell>
        <mxCell id="vpCU-5W5B5tJJJ8MTjzh-30" value="数据输入" style="curved=1;startArrow=none;endArrow=block;exitX=0.5;exitY=1;entryX=0;entryY=0.2;rounded=0;" edge="1" parent="1" source="vpCU-5W5B5tJJJ8MTjzh-20" target="vpCU-5W5B5tJJJ8MTjzh-22">
          <mxGeometry relative="1" as="geometry">
            <Array as="points">
              <mxPoint x="106" y="172" />
            </Array>
          </mxGeometry>
        </mxCell>
        <mxCell id="vpCU-5W5B5tJJJ8MTjzh-31" value="指令输出" style="curved=1;startArrow=none;endArrow=block;exitX=0.38;exitY=1;entryX=1;entryY=0.15;rounded=0;" edge="1" parent="1" source="vpCU-5W5B5tJJJ8MTjzh-24" target="vpCU-5W5B5tJJJ8MTjzh-21">
          <mxGeometry relative="1" as="geometry">
            <Array as="points">
              <mxPoint x="322" y="664" />
            </Array>
          </mxGeometry>
        </mxCell>
        <mxCell id="vpCU-5W5B5tJJJ8MTjzh-32" value="&lt;font style=&quot;&quot;&gt;&lt;b style=&quot;&quot;&gt;&lt;font style=&quot;font-size: 19px;&quot;&gt;&lt;br&gt;&lt;span style=&quot;color: rgb(0, 0, 0); font-family: Helvetica; font-style: normal; font-variant-ligatures: normal; font-variant-caps: normal; letter-spacing: normal; orphans: 2; text-align: center; text-indent: 0px; text-transform: none; widows: 2; word-spacing: 0px; -webkit-text-stroke-width: 0px; white-space: normal; text-decoration-thickness: initial; text-decoration-style: initial; text-decoration-color: initial; float: none; display: inline !important;&quot;&gt;AI智能体核心架构&lt;/span&gt;&lt;/font&gt;&lt;/b&gt;&lt;br&gt;&lt;/font&gt;" style="text;html=1;align=center;verticalAlign=middle;whiteSpace=wrap;rounded=0;" vertex="1" parent="1">
          <mxGeometry x="323" y="52.5" width="185" height="39" as="geometry" />
        </mxCell>
        <mxCell id="vpCU-5W5B5tJJJ8MTjzh-33" value="&lt;span style=&quot;font-weight: normal;&quot;&gt;&lt;span style=&quot;color: rgb(0, 0, 0); font-family: Helvetica; font-size: 12px; font-style: normal; font-variant-ligatures: normal; font-variant-caps: normal; letter-spacing: normal; orphans: 2; text-align: center; text-indent: 0px; text-transform: none; widows: 2; word-spacing: 0px; -webkit-text-stroke-width: 0px; white-space: normal; text-decoration-thickness: initial; text-decoration-style: initial; text-decoration-color: initial; float: none; display: inline !important;&quot;&gt;基于知识库、模型和目标&lt;/span&gt;&lt;br style=&quot;forced-color-adjust: none; padding: 0px; margin: 0px; color: rgb(0, 0, 0); font-family: Helvetica; font-size: 12px; font-style: normal; font-variant-ligatures: normal; font-variant-caps: normal; letter-spacing: normal; orphans: 2; text-align: center; text-indent: 0px; text-transform: none; widows: 2; word-spacing: 0px; -webkit-text-stroke-width: 0px; white-space: normal; text-decoration-thickness: initial; text-decoration-style: initial; text-decoration-color: initial;&quot;&gt;&lt;span style=&quot;color: rgb(0, 0, 0); font-family: Helvetica; font-size: 12px; font-style: normal; font-variant-ligatures: normal; font-variant-caps: normal; letter-spacing: normal; orphans: 2; text-align: center; text-indent: 0px; text-transform: none; widows: 2; word-spacing: 0px; -webkit-text-stroke-width: 0px; white-space: normal; text-decoration-thickness: initial; text-decoration-style: initial; text-decoration-color: initial; float: none; display: inline !important;&quot;&gt;进行分析、推理并规划行动&lt;/span&gt;&lt;/span&gt;" style="text;whiteSpace=wrap;html=1;fontStyle=1" vertex="1" parent="1">
          <mxGeometry x="352.0023529411766" y="412.00352941176465" width="172" height="51" as="geometry" />
        </mxCell>
        <mxCell id="vpCU-5W5B5tJJJ8MTjzh-34" value="&lt;span style=&quot;color: rgb(0, 0, 0); font-family: Helvetica; font-size: 12px; font-style: normal; font-variant-ligatures: normal; font-variant-caps: normal; letter-spacing: normal; orphans: 2; text-align: center; text-indent: 0px; text-transform: none; widows: 2; word-spacing: 0px; -webkit-text-stroke-width: 0px; white-space: normal; text-decoration-thickness: initial; text-decoration-style: initial; text-decoration-color: initial; float: none; display: inline !important;&quot;&gt;&lt;b&gt;行动模块 (Action)&lt;/b&gt;&lt;/span&gt;" style="text;whiteSpace=wrap;html=1;" vertex="1" parent="1">
          <mxGeometry x="315.0017647058824" y="542.0023529411766" width="165" height="36" as="geometry" />
        </mxCell>
        <mxCell id="vpCU-5W5B5tJJJ8MTjzh-36" value="&lt;span style=&quot;color: rgb(0, 0, 0); font-family: Helvetica; font-size: 12px; font-style: normal; font-variant-ligatures: normal; font-variant-caps: normal; letter-spacing: normal; orphans: 2; text-align: center; text-indent: 0px; text-transform: none; widows: 2; word-spacing: 0px; -webkit-text-stroke-width: 0px; white-space: normal; text-decoration-thickness: initial; text-decoration-style: initial; text-decoration-color: initial; float: none; display: inline !important;&quot;&gt;&lt;b&gt;学习/优化模块 (Learning)&lt;/b&gt;&lt;/span&gt;" style="text;whiteSpace=wrap;html=1;" vertex="1" parent="1">
          <mxGeometry x="384.004117647059" y="720" width="161" height="36" as="geometry" />
        </mxCell>
        <mxCell id="vpCU-5W5B5tJJJ8MTjzh-37" value="&lt;span style=&quot;color: rgb(0, 0, 0); font-family: Helvetica; font-size: 12px; font-style: normal; font-variant-ligatures: normal; font-variant-caps: normal; letter-spacing: normal; orphans: 2; text-align: center; text-indent: 0px; text-transform: none; widows: 2; word-spacing: 0px; -webkit-text-stroke-width: 0px; white-space: normal; text-decoration-thickness: initial; text-decoration-style: initial; text-decoration-color: initial; float: none; display: inline !important;&quot;&gt;&lt;b&gt;感知模块 (Perception)&lt;/b&gt;&lt;/span&gt;" style="text;whiteSpace=wrap;html=1;" vertex="1" parent="1">
          <mxGeometry x="365.5052941176473" y="223.0011764705883" width="145" height="36" as="geometry" />
        </mxCell>
      </root>
    </mxGraphModel>
  </diagram>
  <diagram id="HEmMTxmXeqt8FJW-42xI" name="第 2 页">
    <mxGraphModel dx="2037" dy="1061" grid="0" gridSize="10" guides="1" tooltips="1" connect="1" arrows="1" fold="1" page="1" pageScale="1" pageWidth="827" pageHeight="1169" math="0" shadow="0">
      <root>
        <mxCell id="0" />
        <mxCell id="1" parent="0" />
        <mxCell id="lFYJHChxRm0iwv2jLzz3-59" value="处置与响应 (Response &amp; Remediation)" style="whiteSpace=wrap;strokeWidth=2;" vertex="1" parent="1">
          <mxGeometry x="245" y="658" width="569" height="233" as="geometry" />
        </mxCell>
        <mxCell id="lFYJHChxRm0iwv2jLzz3-60" value="" style="whiteSpace=wrap;strokeWidth=2;" vertex="1" parent="1">
          <mxGeometry x="989" y="325" width="395" height="279" as="geometry" />
        </mxCell>
        <mxCell id="lFYJHChxRm0iwv2jLzz3-61" value="" style="whiteSpace=wrap;strokeWidth=2;" vertex="1" parent="1">
          <mxGeometry x="134" y="322" width="751" height="282" as="geometry" />
        </mxCell>
        <mxCell id="lFYJHChxRm0iwv2jLzz3-62" value="" style="whiteSpace=wrap;strokeWidth=2;" vertex="1" parent="1">
          <mxGeometry x="133" y="51" width="270" height="232" as="geometry" />
        </mxCell>
        <mxCell id="lFYJHChxRm0iwv2jLzz3-63" value="" style="whiteSpace=wrap;strokeWidth=2;" vertex="1" parent="1">
          <mxGeometry x="451" y="51" width="933" height="233" as="geometry" />
        </mxCell>
        <mxCell id="dwg6j9GG5Fs4LIVe3fjb-5" value="" style="edgeStyle=orthogonalEdgeStyle;rounded=0;orthogonalLoop=1;jettySize=auto;html=1;" edge="1" parent="1" source="lFYJHChxRm0iwv2jLzz3-64" target="lFYJHChxRm0iwv2jLzz3-65">
          <mxGeometry relative="1" as="geometry" />
        </mxCell>
        <mxCell id="lFYJHChxRm0iwv2jLzz3-64" value="Web攻击" style="whiteSpace=wrap;strokeWidth=2;" vertex="1" parent="1">
          <mxGeometry x="490" y="60" width="123" height="54" as="geometry" />
        </mxCell>
        <mxCell id="dwg6j9GG5Fs4LIVe3fjb-11" style="edgeStyle=orthogonalEdgeStyle;rounded=0;orthogonalLoop=1;jettySize=auto;html=1;" edge="1" parent="1" source="lFYJHChxRm0iwv2jLzz3-65" target="lFYJHChxRm0iwv2jLzz3-73">
          <mxGeometry relative="1" as="geometry">
            <Array as="points">
              <mxPoint x="552" y="202" />
              <mxPoint x="824" y="202" />
            </Array>
          </mxGeometry>
        </mxCell>
        <mxCell id="dwg6j9GG5Fs4LIVe3fjb-6" value="" style="edgeStyle=orthogonalEdgeStyle;rounded=0;orthogonalLoop=1;jettySize=auto;html=1;" edge="1" parent="1" source="lFYJHChxRm0iwv2jLzz3-66" target="lFYJHChxRm0iwv2jLzz3-73">
          <mxGeometry relative="1" as="geometry">
            <Array as="points">
              <mxPoint x="725" y="202" />
              <mxPoint x="824" y="202" />
            </Array>
          </mxGeometry>
        </mxCell>
        <mxCell id="lFYJHChxRm0iwv2jLzz3-66" value="钓鱼邮件" style="whiteSpace=wrap;strokeWidth=2;" vertex="1" parent="1">
          <mxGeometry x="663" y="60" width="124" height="54" as="geometry" />
        </mxCell>
        <mxCell id="dwg6j9GG5Fs4LIVe3fjb-12" style="edgeStyle=orthogonalEdgeStyle;rounded=0;orthogonalLoop=1;jettySize=auto;html=1;" edge="1" parent="1" source="lFYJHChxRm0iwv2jLzz3-68" target="lFYJHChxRm0iwv2jLzz3-73">
          <mxGeometry relative="1" as="geometry">
            <Array as="points">
              <mxPoint x="906" y="202" />
              <mxPoint x="824" y="202" />
            </Array>
          </mxGeometry>
        </mxCell>
        <mxCell id="lFYJHChxRm0iwv2jLzz3-68" value="0DAY攻击" style="whiteSpace=wrap;strokeWidth=2;" vertex="1" parent="1">
          <mxGeometry x="837" y="60" width="127" height="54" as="geometry" />
        </mxCell>
        <mxCell id="dwg6j9GG5Fs4LIVe3fjb-13" style="edgeStyle=orthogonalEdgeStyle;rounded=0;orthogonalLoop=1;jettySize=auto;html=1;entryX=0.5;entryY=0;entryDx=0;entryDy=0;" edge="1" parent="1" source="lFYJHChxRm0iwv2jLzz3-70" target="lFYJHChxRm0iwv2jLzz3-73">
          <mxGeometry relative="1" as="geometry">
            <Array as="points">
              <mxPoint x="1076" y="202" />
              <mxPoint x="824" y="202" />
            </Array>
          </mxGeometry>
        </mxCell>
        <mxCell id="lFYJHChxRm0iwv2jLzz3-70" value="攻击流量" style="whiteSpace=wrap;strokeWidth=2;" vertex="1" parent="1">
          <mxGeometry x="1011" y="55" width="124" height="54" as="geometry" />
        </mxCell>
        <mxCell id="lFYJHChxRm0iwv2jLzz3-72" value="探针/传感器" style="whiteSpace=wrap;strokeWidth=2;" vertex="1" parent="1">
          <mxGeometry x="200" y="137" width="148" height="54" as="geometry" />
        </mxCell>
        <mxCell id="dwg6j9GG5Fs4LIVe3fjb-14" style="edgeStyle=orthogonalEdgeStyle;rounded=0;orthogonalLoop=1;jettySize=auto;html=1;entryX=0.5;entryY=0;entryDx=0;entryDy=0;" edge="1" parent="1" source="lFYJHChxRm0iwv2jLzz3-73" target="lFYJHChxRm0iwv2jLzz3-74">
          <mxGeometry relative="1" as="geometry">
            <Array as="points">
              <mxPoint x="824" y="296" />
              <mxPoint x="543" y="296" />
            </Array>
          </mxGeometry>
        </mxCell>
        <mxCell id="lFYJHChxRm0iwv2jLzz3-73" value="TAR, CSP, NFT, IPS, WAF" style="rounded=1;arcSize=20;strokeWidth=2" vertex="1" parent="1">
          <mxGeometry x="724" y="218" width="199" height="54" as="geometry" />
        </mxCell>
        <mxCell id="lFYJHChxRm0iwv2jLzz3-74" value="XDR核心" style="whiteSpace=wrap;strokeWidth=2;" vertex="1" parent="1">
          <mxGeometry x="483" y="328" width="120" height="54" as="geometry" />
        </mxCell>
        <mxCell id="lFYJHChxRm0iwv2jLzz3-75" value="日志收集, 告警降噪, 事件还原" style="rounded=1;arcSize=20;strokeWidth=2" vertex="1" parent="1">
          <mxGeometry x="157" y="507" width="180" height="78" as="geometry" />
        </mxCell>
        <mxCell id="lFYJHChxRm0iwv2jLzz3-76" value="安全智能体" style="whiteSpace=wrap;strokeWidth=2;" vertex="1" parent="1">
          <mxGeometry x="1043" y="337" width="140" height="54" as="geometry" />
        </mxCell>
        <mxCell id="lFYJHChxRm0iwv2jLzz3-77" value="告警分析, 智能决策" style="rounded=1;arcSize=20;strokeWidth=2" vertex="1" parent="1">
          <mxGeometry x="1205" y="337" width="169" height="54" as="geometry" />
        </mxCell>
        <mxCell id="lFYJHChxRm0iwv2jLzz3-78" value="告警通知" style="whiteSpace=wrap;strokeWidth=2;" vertex="1" parent="1">
          <mxGeometry x="292" y="683" width="124" height="54" as="geometry" />
        </mxCell>
        <mxCell id="lFYJHChxRm0iwv2jLzz3-79" value="企微, 飞书, 钉钉" style="rounded=1;arcSize=20;strokeWidth=2" vertex="1" parent="1">
          <mxGeometry x="280" y="812" width="147" height="54" as="geometry" />
        </mxCell>
        <mxCell id="lFYJHChxRm0iwv2jLzz3-80" value="联动阻断" style="whiteSpace=wrap;strokeWidth=2;" vertex="1" parent="1">
          <mxGeometry x="481" y="683" width="124" height="54" as="geometry" />
        </mxCell>
        <mxCell id="lFYJHChxRm0iwv2jLzz3-81" value="EDR, IPS, WAF" style="rounded=1;arcSize=20;strokeWidth=2" vertex="1" parent="1">
          <mxGeometry x="478" y="812" width="130" height="54" as="geometry" />
        </mxCell>
        <mxCell id="lFYJHChxRm0iwv2jLzz3-82" value="溯源取证" style="whiteSpace=wrap;strokeWidth=2;" vertex="1" parent="1">
          <mxGeometry x="655" y="683" width="124" height="54" as="geometry" />
        </mxCell>
        <mxCell id="lFYJHChxRm0iwv2jLzz3-83" value="全流量取证" style="rounded=1;arcSize=20;strokeWidth=2" vertex="1" parent="1">
          <mxGeometry x="662" y="812" width="110" height="54" as="geometry" />
        </mxCell>
        <mxCell id="lFYJHChxRm0iwv2jLzz3-89" value="" style="curved=1;startArrow=none;endArrow=block;exitX=0;exitY=0.66;entryX=0.5;entryY=0;rounded=0;" edge="1" parent="1" source="lFYJHChxRm0iwv2jLzz3-74" target="lFYJHChxRm0iwv2jLzz3-75">
          <mxGeometry relative="1" as="geometry">
            <Array as="points">
              <mxPoint x="170" y="407" />
            </Array>
          </mxGeometry>
        </mxCell>
        <mxCell id="lFYJHChxRm0iwv2jLzz3-90" value="" style="curved=0;startArrow=none;endArrow=block;exitX=1;exitY=0.5;entryX=0;entryY=0.5;rounded=0;exitDx=0;exitDy=0;entryDx=0;entryDy=0;" edge="1" parent="1" source="lFYJHChxRm0iwv2jLzz3-76" target="lFYJHChxRm0iwv2jLzz3-77">
          <mxGeometry relative="1" as="geometry">
            <Array as="points" />
          </mxGeometry>
        </mxCell>
        <mxCell id="lFYJHChxRm0iwv2jLzz3-91" value="" style="curved=1;startArrow=none;endArrow=block;exitX=0.5;exitY=1;entryX=0.5;entryY=0;rounded=0;" edge="1" parent="1" source="lFYJHChxRm0iwv2jLzz3-78" target="lFYJHChxRm0iwv2jLzz3-79">
          <mxGeometry relative="1" as="geometry">
            <Array as="points" />
          </mxGeometry>
        </mxCell>
        <mxCell id="lFYJHChxRm0iwv2jLzz3-92" value="" style="curved=1;startArrow=none;endArrow=block;exitX=0.5;exitY=1;entryX=0.5;entryY=0;rounded=0;" edge="1" parent="1" source="lFYJHChxRm0iwv2jLzz3-80" target="lFYJHChxRm0iwv2jLzz3-81">
          <mxGeometry relative="1" as="geometry">
            <Array as="points" />
          </mxGeometry>
        </mxCell>
        <mxCell id="lFYJHChxRm0iwv2jLzz3-93" value="" style="curved=1;startArrow=none;endArrow=block;exitX=0.5;exitY=1;entryX=0.5;entryY=0;rounded=0;" edge="1" parent="1" source="lFYJHChxRm0iwv2jLzz3-82" target="lFYJHChxRm0iwv2jLzz3-83">
          <mxGeometry relative="1" as="geometry">
            <Array as="points" />
          </mxGeometry>
        </mxCell>
        <mxCell id="lFYJHChxRm0iwv2jLzz3-98" value="" style="curved=0;startArrow=none;endArrow=block;exitX=0.5;exitY=1;entryX=0.5;entryY=0;rounded=0;entryDx=0;entryDy=0;exitDx=0;exitDy=0;" edge="1" parent="1" source="lFYJHChxRm0iwv2jLzz3-72" target="lFYJHChxRm0iwv2jLzz3-74">
          <mxGeometry relative="1" as="geometry">
            <Array as="points">
              <mxPoint x="275" y="293" />
              <mxPoint x="543" y="296" />
            </Array>
          </mxGeometry>
        </mxCell>
        <mxCell id="lFYJHChxRm0iwv2jLzz3-99" value="" style="curved=0;startArrow=none;endArrow=block;exitX=1;exitY=0.79;entryX=0;entryY=0.35;rounded=0;" edge="1" parent="1">
          <mxGeometry relative="1" as="geometry">
            <Array as="points" />
            <mxPoint x="605" y="361.00000000000006" as="sourcePoint" />
            <mxPoint x="1045" y="363.23999999999984" as="targetPoint" />
          </mxGeometry>
        </mxCell>
        <mxCell id="lFYJHChxRm0iwv2jLzz3-100" value="告警通知" style="curved=0;startArrow=none;endArrow=block;exitX=0.18;exitY=1;rounded=0;" edge="1" parent="1" source="lFYJHChxRm0iwv2jLzz3-76">
          <mxGeometry x="-0.755" y="-26" relative="1" as="geometry">
            <Array as="points">
              <mxPoint x="1072" y="633" />
            </Array>
            <mxPoint x="354" y="639" as="targetPoint" />
            <mxPoint as="offset" />
          </mxGeometry>
        </mxCell>
        <mxCell id="lFYJHChxRm0iwv2jLzz3-101" value="联动处置" style="curved=0;startArrow=none;endArrow=block;exitX=0.602;exitY=0.989;rounded=0;exitDx=0;exitDy=0;exitPerimeter=0;" edge="1" parent="1" source="lFYJHChxRm0iwv2jLzz3-76">
          <mxGeometry x="-0.7162" y="-2" relative="1" as="geometry">
            <Array as="points">
              <mxPoint x="1132" y="633" />
            </Array>
            <mxPoint x="539" y="638" as="targetPoint" />
            <mxPoint as="offset" />
          </mxGeometry>
        </mxCell>
        <mxCell id="lFYJHChxRm0iwv2jLzz3-102" value="溯源取证" style="curved=0;startArrow=none;endArrow=block;exitX=0.939;exitY=1.042;rounded=0;exitDx=0;exitDy=0;exitPerimeter=0;" edge="1" parent="1" source="lFYJHChxRm0iwv2jLzz3-76">
          <mxGeometry x="-0.6722" y="13" relative="1" as="geometry">
            <Array as="points">
              <mxPoint x="1179" y="633" />
            </Array>
            <mxPoint x="717" y="636" as="targetPoint" />
            <mxPoint y="-1" as="offset" />
          </mxGeometry>
        </mxCell>
        <mxCell id="lFYJHChxRm0iwv2jLzz3-103" value="处置结果" style="curved=1;startArrow=none;endArrow=block;exitX=0.5;exitY=0;entryX=0;entryY=0.81;rounded=0;" edge="1" parent="1" source="lFYJHChxRm0iwv2jLzz3-78" target="lFYJHChxRm0iwv2jLzz3-74">
          <mxGeometry relative="1" as="geometry">
            <Array as="points">
              <mxPoint x="354" y="407" />
            </Array>
          </mxGeometry>
        </mxCell>
        <mxCell id="lFYJHChxRm0iwv2jLzz3-104" value="处置结果" style="curved=1;startArrow=none;endArrow=block;exitX=0.5;exitY=0;entryX=0.5;entryY=1;rounded=0;" edge="1" parent="1" source="lFYJHChxRm0iwv2jLzz3-80" target="lFYJHChxRm0iwv2jLzz3-74">
          <mxGeometry x="0.3621" relative="1" as="geometry">
            <Array as="points" />
            <mxPoint y="-1" as="offset" />
          </mxGeometry>
        </mxCell>
        <mxCell id="lFYJHChxRm0iwv2jLzz3-105" value="处置结果" style="curved=1;startArrow=none;endArrow=block;exitX=0.5;exitY=0;entryX=1;entryY=0.83;rounded=0;" edge="1" parent="1" source="lFYJHChxRm0iwv2jLzz3-82" target="lFYJHChxRm0iwv2jLzz3-74">
          <mxGeometry relative="1" as="geometry">
            <Array as="points">
              <mxPoint x="717" y="407" />
            </Array>
          </mxGeometry>
        </mxCell>
        <mxCell id="dwg6j9GG5Fs4LIVe3fjb-1" value="&lt;span style=&quot;color: rgb(0, 0, 0); font-family: Helvetica; font-style: normal; font-variant-ligatures: normal; font-variant-caps: normal; letter-spacing: normal; orphans: 2; text-align: center; text-indent: 0px; text-transform: none; widows: 2; word-spacing: 0px; -webkit-text-stroke-width: 0px; white-space: normal; text-decoration-thickness: initial; text-decoration-style: initial; text-decoration-color: initial; float: none; display: inline !important;&quot;&gt;&lt;font style=&quot;font-size: 16px;&quot;&gt;&lt;b&gt;智能决策 (AI Agent)&lt;/b&gt;&lt;/font&gt;&lt;/span&gt;" style="text;whiteSpace=wrap;html=1;" vertex="1" parent="1">
          <mxGeometry x="1194" y="454" width="180" height="36" as="geometry" />
        </mxCell>
        <mxCell id="dwg6j9GG5Fs4LIVe3fjb-2" value="&lt;span style=&quot;color: rgb(0, 0, 0); font-family: Helvetica; font-style: normal; font-variant-ligatures: normal; font-variant-caps: normal; letter-spacing: normal; orphans: 2; text-align: center; text-indent: 0px; text-transform: none; widows: 2; word-spacing: 0px; -webkit-text-stroke-width: 0px; white-space: normal; text-decoration-thickness: initial; text-decoration-style: initial; text-decoration-color: initial; float: none; display: inline !important;&quot;&gt;&lt;font style=&quot;font-size: 16px;&quot;&gt;&lt;b style=&quot;&quot;&gt;统一分析 (Unified Analysis)&lt;/b&gt;&lt;/font&gt;&lt;/span&gt;" style="text;whiteSpace=wrap;html=1;" vertex="1" parent="1">
          <mxGeometry x="153" y="346" width="221" height="36" as="geometry" />
        </mxCell>
        <mxCell id="dwg6j9GG5Fs4LIVe3fjb-3" value="&lt;span style=&quot;color: rgb(0, 0, 0); font-family: Helvetica; font-style: normal; font-variant-ligatures: normal; font-variant-caps: normal; letter-spacing: normal; orphans: 2; text-align: center; text-indent: 0px; text-transform: none; widows: 2; word-spacing: 0px; -webkit-text-stroke-width: 0px; white-space: normal; text-decoration-thickness: initial; text-decoration-style: initial; text-decoration-color: initial; float: none; display: inline !important;&quot;&gt;&lt;font style=&quot;font-size: 16px;&quot;&gt;&lt;b&gt;数据输入 (Data Ingestion)&lt;/b&gt;&lt;/font&gt;&lt;/span&gt;" style="text;whiteSpace=wrap;html=1;" vertex="1" parent="1">
          <mxGeometry x="1167" y="70" width="222.86" height="36" as="geometry" />
        </mxCell>
        <mxCell id="dwg6j9GG5Fs4LIVe3fjb-4" value="&lt;span style=&quot;color: rgb(0, 0, 0); font-family: Helvetica; font-style: normal; font-variant-ligatures: normal; font-variant-caps: normal; letter-spacing: normal; orphans: 2; text-align: center; text-indent: 0px; text-transform: none; widows: 2; word-spacing: 0px; -webkit-text-stroke-width: 0px; white-space: normal; text-decoration-thickness: initial; text-decoration-style: initial; text-decoration-color: initial; float: none; display: inline !important;&quot;&gt;&lt;b style=&quot;&quot;&gt;&lt;font style=&quot;font-size: 16px;&quot;&gt;安全检测 (Security Detection)&lt;/font&gt;&lt;/b&gt;&lt;/span&gt;" style="text;whiteSpace=wrap;html=1;" vertex="1" parent="1">
          <mxGeometry x="153" y="70" width="254" height="36" as="geometry" />
        </mxCell>
        <mxCell id="dwg6j9GG5Fs4LIVe3fjb-16" value="" style="endArrow=classic;html=1;rounded=0;entryX=0;entryY=0.5;entryDx=0;entryDy=0;" edge="1" parent="1" target="lFYJHChxRm0iwv2jLzz3-73">
          <mxGeometry width="50" height="50" relative="1" as="geometry">
            <mxPoint x="276" y="245" as="sourcePoint" />
            <mxPoint x="852" y="495" as="targetPoint" />
          </mxGeometry>
        </mxCell>
        <mxCell id="dwg6j9GG5Fs4LIVe3fjb-17" value="" style="endArrow=none;dashed=1;html=1;dashPattern=1 3;strokeWidth=2;rounded=0;entryX=1;entryY=0.5;entryDx=0;entryDy=0;" edge="1" parent="1" target="lFYJHChxRm0iwv2jLzz3-71">
          <mxGeometry width="50" height="50" relative="1" as="geometry">
            <mxPoint x="351" y="170" as="sourcePoint" />
            <mxPoint x="401" y="120" as="targetPoint" />
            <Array as="points">
              <mxPoint x="344" y="164" />
            </Array>
          </mxGeometry>
        </mxCell>
        <mxCell id="lFYJHChxRm0iwv2jLzz3-65" value="流量, 日志" style="rounded=1;arcSize=20;strokeWidth=2" vertex="1" parent="1">
          <mxGeometry x="499" y="137" width="105" height="54" as="geometry" />
        </mxCell>
        <mxCell id="lFYJHChxRm0iwv2jLzz3-67" value="邮件内容" style="rounded=1;arcSize=20;strokeWidth=2" vertex="1" parent="1">
          <mxGeometry x="681" y="137" width="94" height="54" as="geometry" />
        </mxCell>
        <mxCell id="lFYJHChxRm0iwv2jLzz3-69" value="漏洞利用" style="rounded=1;arcSize=20;strokeWidth=2" vertex="1" parent="1">
          <mxGeometry x="859" y="137" width="94" height="54" as="geometry" />
        </mxCell>
        <mxCell id="lFYJHChxRm0iwv2jLzz3-71" value="网络包" style="rounded=1;arcSize=20;strokeWidth=2" vertex="1" parent="1">
          <mxGeometry x="1037" y="137" width="78" height="54" as="geometry" />
        </mxCell>
      </root>
    </mxGraphModel>
  </diagram>
  <diagram id="nUZ251a7xVlfZ91InPeW" name="第 3 页">
    <mxGraphModel dx="2037" dy="1061" grid="0" gridSize="10" guides="1" tooltips="1" connect="1" arrows="1" fold="1" page="1" pageScale="1" pageWidth="827" pageHeight="1169" math="0" shadow="0">
      <root>
        <mxCell id="0" />
        <mxCell id="1" parent="0" />
        <mxCell id="P0ELO4LXrAvlFGFinoyo-32" value="核心安全智能体架构" style="whiteSpace=wrap;strokeWidth=2;verticalAlign=top;" vertex="1" parent="1">
          <mxGeometry x="20" y="20" width="1239" height="1133" as="geometry" />
        </mxCell>
        <mxCell id="P0ELO4LXrAvlFGFinoyo-33" value="全流量取证" style="whiteSpace=wrap;strokeWidth=2;" vertex="1" parent="P0ELO4LXrAvlFGFinoyo-32">
          <mxGeometry x="744" y="325" width="140" height="54" as="geometry" />
        </mxCell>
        <mxCell id="P0ELO4LXrAvlFGFinoyo-34" value="溯源取证" style="whiteSpace=wrap;strokeWidth=2;" vertex="1" parent="P0ELO4LXrAvlFGFinoyo-32">
          <mxGeometry x="709" y="287" width="210" height="129" as="geometry" />
        </mxCell>
        <mxCell id="P0ELO4LXrAvlFGFinoyo-35" value="Web攻击" style="whiteSpace=wrap;strokeWidth=2;" vertex="1" parent="P0ELO4LXrAvlFGFinoyo-32">
          <mxGeometry x="63" y="83" width="123" height="54" as="geometry" />
        </mxCell>
        <mxCell id="P0ELO4LXrAvlFGFinoyo-36" value="探针/传感器" style="whiteSpace=wrap;strokeWidth=2;" vertex="1" parent="P0ELO4LXrAvlFGFinoyo-32">
          <mxGeometry x="311" y="325" width="148" height="54" as="geometry" />
        </mxCell>
        <mxCell id="P0ELO4LXrAvlFGFinoyo-37" value="钓鱼邮件" style="whiteSpace=wrap;strokeWidth=2;" vertex="1" parent="P0ELO4LXrAvlFGFinoyo-32">
          <mxGeometry x="236" y="83" width="124" height="54" as="geometry" />
        </mxCell>
        <mxCell id="P0ELO4LXrAvlFGFinoyo-38" value="0DAY攻击" style="whiteSpace=wrap;strokeWidth=2;" vertex="1" parent="P0ELO4LXrAvlFGFinoyo-32">
          <mxGeometry x="410" y="83" width="127" height="54" as="geometry" />
        </mxCell>
        <mxCell id="P0ELO4LXrAvlFGFinoyo-39" value="攻击流量" style="whiteSpace=wrap;strokeWidth=2;" vertex="1" parent="P0ELO4LXrAvlFGFinoyo-32">
          <mxGeometry x="587" y="83" width="124" height="54" as="geometry" />
        </mxCell>
        <mxCell id="P0ELO4LXrAvlFGFinoyo-40" value="XDR核心" style="whiteSpace=wrap;strokeWidth=2;" vertex="1" parent="P0ELO4LXrAvlFGFinoyo-32">
          <mxGeometry x="325" y="566" width="120" height="54" as="geometry" />
        </mxCell>
        <mxCell id="P0ELO4LXrAvlFGFinoyo-41" value="安全智能体" style="whiteSpace=wrap;strokeWidth=2;" vertex="1" parent="P0ELO4LXrAvlFGFinoyo-32">
          <mxGeometry x="295" y="770" width="140" height="54" as="geometry" />
        </mxCell>
        <mxCell id="P0ELO4LXrAvlFGFinoyo-42" value="企微, 飞书, 钉钉" style="whiteSpace=wrap;strokeWidth=2;" vertex="1" parent="P0ELO4LXrAvlFGFinoyo-32">
          <mxGeometry x="744" y="974" width="177" height="54" as="geometry" />
        </mxCell>
        <mxCell id="P0ELO4LXrAvlFGFinoyo-43" value="EDR, IPS, WAF" style="whiteSpace=wrap;strokeWidth=2;" vertex="1" parent="P0ELO4LXrAvlFGFinoyo-32">
          <mxGeometry x="1012" y="974" width="160" height="54" as="geometry" />
        </mxCell>
        <mxCell id="P0ELO4LXrAvlFGFinoyo-44" value="5. 处置与响应 (Response &amp; Remediation)" style="whiteSpace=wrap;strokeWidth=2;" vertex="1" parent="P0ELO4LXrAvlFGFinoyo-32">
          <mxGeometry x="689" y="250" width="538" height="854" as="geometry" />
        </mxCell>
        <mxCell id="P0ELO4LXrAvlFGFinoyo-45" value="联动阻断" style="whiteSpace=wrap;strokeWidth=2;" vertex="1" parent="P0ELO4LXrAvlFGFinoyo-32">
          <mxGeometry x="977" y="937" width="230" height="129" as="geometry" />
        </mxCell>
        <mxCell id="P0ELO4LXrAvlFGFinoyo-46" value="告警通知" style="whiteSpace=wrap;strokeWidth=2;" vertex="1" parent="P0ELO4LXrAvlFGFinoyo-32">
          <mxGeometry x="709" y="937" width="247" height="129" as="geometry" />
        </mxCell>
        <mxCell id="P0ELO4LXrAvlFGFinoyo-47" value="4. 智能决策 (AI Agent)" style="whiteSpace=wrap;strokeWidth=2;" vertex="1" parent="P0ELO4LXrAvlFGFinoyo-32">
          <mxGeometry x="260" y="733" width="210" height="129" as="geometry" />
        </mxCell>
        <mxCell id="P0ELO4LXrAvlFGFinoyo-48" value="3. 统一分析 (Unified Analysis)" style="whiteSpace=wrap;strokeWidth=2;" vertex="1" parent="P0ELO4LXrAvlFGFinoyo-32">
          <mxGeometry x="281" y="529" width="208" height="129" as="geometry" />
        </mxCell>
        <mxCell id="P0ELO4LXrAvlFGFinoyo-49" value="2. 安全检测 (Security Detection)" style="whiteSpace=wrap;strokeWidth=2;" vertex="1" parent="P0ELO4LXrAvlFGFinoyo-32">
          <mxGeometry x="64" y="250" width="605" height="204" as="geometry" />
        </mxCell>
        <mxCell id="P0ELO4LXrAvlFGFinoyo-50" value="1. 数据输入 (Data Ingestion)" style="whiteSpace=wrap;strokeWidth=2;" vertex="1" parent="P0ELO4LXrAvlFGFinoyo-32">
          <mxGeometry x="28" y="46" width="718" height="129" as="geometry" />
        </mxCell>
        <mxCell id="P0ELO4LXrAvlFGFinoyo-51" value="" style="curved=1;startArrow=none;endArrow=block;exitX=0.5;exitY=1;entryX=0;entryY=0.15;rounded=0;" edge="1" parent="P0ELO4LXrAvlFGFinoyo-32" source="P0ELO4LXrAvlFGFinoyo-35" target="P0ELO4LXrAvlFGFinoyo-36">
          <mxGeometry relative="1" as="geometry">
            <Array as="points">
              <mxPoint x="124" y="287" />
            </Array>
          </mxGeometry>
        </mxCell>
        <mxCell id="P0ELO4LXrAvlFGFinoyo-52" value="" style="curved=1;startArrow=none;endArrow=block;exitX=0.5;exitY=1;entryX=0.25;entryY=-0.01;rounded=0;" edge="1" parent="P0ELO4LXrAvlFGFinoyo-32" source="P0ELO4LXrAvlFGFinoyo-37" target="P0ELO4LXrAvlFGFinoyo-36">
          <mxGeometry relative="1" as="geometry">
            <Array as="points">
              <mxPoint x="298" y="287" />
            </Array>
          </mxGeometry>
        </mxCell>
        <mxCell id="P0ELO4LXrAvlFGFinoyo-53" value="" style="curved=1;startArrow=none;endArrow=block;exitX=0.5;exitY=1;entryX=0.75;entryY=-0.01;rounded=0;" edge="1" parent="P0ELO4LXrAvlFGFinoyo-32" source="P0ELO4LXrAvlFGFinoyo-38" target="P0ELO4LXrAvlFGFinoyo-36">
          <mxGeometry relative="1" as="geometry">
            <Array as="points">
              <mxPoint x="473" y="287" />
            </Array>
          </mxGeometry>
        </mxCell>
        <mxCell id="P0ELO4LXrAvlFGFinoyo-54" value="" style="curved=1;startArrow=none;endArrow=block;exitX=0.5;exitY=1;entryX=1;entryY=0.15;rounded=0;" edge="1" parent="P0ELO4LXrAvlFGFinoyo-32" source="P0ELO4LXrAvlFGFinoyo-39" target="P0ELO4LXrAvlFGFinoyo-36">
          <mxGeometry relative="1" as="geometry">
            <Array as="points">
              <mxPoint x="649" y="287" />
            </Array>
          </mxGeometry>
        </mxCell>
        <mxCell id="P0ELO4LXrAvlFGFinoyo-55" value="" style="curved=1;startArrow=none;endArrow=block;exitX=0.5;exitY=0.99;entryX=0.5;entryY=0;rounded=0;" edge="1" parent="P0ELO4LXrAvlFGFinoyo-32" source="P0ELO4LXrAvlFGFinoyo-36" target="P0ELO4LXrAvlFGFinoyo-40">
          <mxGeometry relative="1" as="geometry">
            <Array as="points" />
          </mxGeometry>
        </mxCell>
        <mxCell id="P0ELO4LXrAvlFGFinoyo-56" value="" style="curved=1;startArrow=none;endArrow=block;exitX=0.43;exitY=1;entryX=0.5;entryY=0;rounded=0;" edge="1" parent="P0ELO4LXrAvlFGFinoyo-32" source="P0ELO4LXrAvlFGFinoyo-40" target="P0ELO4LXrAvlFGFinoyo-41">
          <mxGeometry relative="1" as="geometry">
            <Array as="points">
              <mxPoint x="365" y="658" />
            </Array>
          </mxGeometry>
        </mxCell>
        <mxCell id="P0ELO4LXrAvlFGFinoyo-57" value="" style="curved=1;startArrow=none;endArrow=block;exitX=0.41;exitY=1;entryX=0.4;entryY=0;rounded=0;" edge="1" parent="P0ELO4LXrAvlFGFinoyo-32" source="P0ELO4LXrAvlFGFinoyo-41" target="P0ELO4LXrAvlFGFinoyo-42">
          <mxGeometry relative="1" as="geometry">
            <Array as="points">
              <mxPoint x="333" y="862" />
              <mxPoint x="791" y="899" />
              <mxPoint x="791" y="937" />
            </Array>
          </mxGeometry>
        </mxCell>
        <mxCell id="P0ELO4LXrAvlFGFinoyo-58" value="" style="curved=1;startArrow=none;endArrow=block;exitX=0.63;exitY=1;entryX=0.4;entryY=0;rounded=0;" edge="1" parent="P0ELO4LXrAvlFGFinoyo-32" source="P0ELO4LXrAvlFGFinoyo-41" target="P0ELO4LXrAvlFGFinoyo-43">
          <mxGeometry relative="1" as="geometry">
            <Array as="points">
              <mxPoint x="408" y="862" />
              <mxPoint x="1054" y="899" />
              <mxPoint x="1054" y="937" />
            </Array>
          </mxGeometry>
        </mxCell>
        <mxCell id="P0ELO4LXrAvlFGFinoyo-59" value="" style="curved=1;startArrow=none;endArrow=block;exitX=1;exitY=0.33;entryX=0.62;entryY=0.99;rounded=0;" edge="1" parent="P0ELO4LXrAvlFGFinoyo-32" source="P0ELO4LXrAvlFGFinoyo-41" target="P0ELO4LXrAvlFGFinoyo-33">
          <mxGeometry relative="1" as="geometry">
            <Array as="points">
              <mxPoint x="856" y="733" />
              <mxPoint x="856" y="416" />
            </Array>
          </mxGeometry>
        </mxCell>
        <mxCell id="P0ELO4LXrAvlFGFinoyo-60" value="" style="curved=1;startArrow=none;endArrow=block;exitX=0.63;exitY=0;entryX=0.56;entryY=1;rounded=0;" edge="1" parent="P0ELO4LXrAvlFGFinoyo-32" source="P0ELO4LXrAvlFGFinoyo-42" target="P0ELO4LXrAvlFGFinoyo-40">
          <mxGeometry relative="1" as="geometry">
            <Array as="points">
              <mxPoint x="885" y="937" />
              <mxPoint x="885" y="695" />
              <mxPoint x="403" y="658" />
            </Array>
          </mxGeometry>
        </mxCell>
        <mxCell id="P0ELO4LXrAvlFGFinoyo-61" value="" style="curved=1;startArrow=none;endArrow=block;exitX=0.62;exitY=0;entryX=0.63;entryY=1;rounded=0;" edge="1" parent="P0ELO4LXrAvlFGFinoyo-32" source="P0ELO4LXrAvlFGFinoyo-43" target="P0ELO4LXrAvlFGFinoyo-40">
          <mxGeometry relative="1" as="geometry">
            <Array as="points">
              <mxPoint x="1139" y="937" />
              <mxPoint x="1139" y="695" />
              <mxPoint x="423" y="658" />
            </Array>
          </mxGeometry>
        </mxCell>
        <mxCell id="P0ELO4LXrAvlFGFinoyo-62" value="" style="curved=1;startArrow=none;endArrow=block;exitX=0.4;exitY=0.99;entryX=1;entryY=0.32;rounded=0;" edge="1" parent="P0ELO4LXrAvlFGFinoyo-32" source="P0ELO4LXrAvlFGFinoyo-33" target="P0ELO4LXrAvlFGFinoyo-40">
          <mxGeometry relative="1" as="geometry">
            <Array as="points">
              <mxPoint x="781" y="416" />
              <mxPoint x="781" y="529" />
            </Array>
          </mxGeometry>
        </mxCell>
      </root>
    </mxGraphModel>
  </diagram>
</mxfile>
